ffmpeg started on 2016-12-07 at 22:13:50
Report written to "Output/x264/results/ffmpeg/Tsintelslower3000k.log"
Command line:
Tools/ffmpeg/ffmpeg -i Output/x264/encoded/sintelslower3000k.mkv -c:v rawvideo -pix_fmt yuv420p Output/x264/transcoded/sintelslower3000k.yuv
ffmpeg version N-82227-gdb23fde Copyright (c) 2000-2016 the FFmpeg developers
  built with gcc 5.4.0 (Ubuntu 5.4.0-6ubuntu1~16.04.2) 20160609
  configuration: --prefix=/home/jaroslav/ffmpeg_build --pkg-config-flags=--static --extra-cflags=-I/home/jaroslav/ffmpeg_build/include --extra-ldflags=-L/home/jaroslav/ffmpeg_build/lib --bindir=/home/jaroslav/bin --enable-gpl --enable-libass --enable-libfdk-aac --enable-libfreetype --enable-libmp3lame --enable-libopus --enable-libtheora --enable-libvorbis --enable-libvpx --enable-libx264 --enable-libx265 --enable-nvenc --enable-libmfx --enable-libxvid --enable-libgsm --enable-libopencore-amrnb --enable-version3 --enable-nonfree
  libavutil      55. 35.100 / 55. 35.100
  libavcodec     57. 66.101 / 57. 66.101
  libavformat    57. 57.100 / 57. 57.100
  libavdevice    57.  2.100 / 57.  2.100
  libavfilter     6. 66.100 /  6. 66.100
  libswscale      4.  3.100 /  4.  3.100
  libswresample   2.  4.100 /  2.  4.100
  libpostproc    54.  2.100 / 54.  2.100
Input #0, matroska,webm, from 'Output/x264/encoded/sintelslower3000k.mkv':
  Metadata:
    ENCODER         : Lavf57.57.100
  Duration: 00:00:20.83, start: 0.000000, bitrate: 2411 kb/s
    Stream #0:0: Video: h264 (High), yuv420p(progressive), 4096x1744 [SAR 1:1 DAR 256:109], 24 fps, 24 tbr, 1k tbn, 48 tbc (default)
    Metadata:
      ENCODER         : Lavc57.66.101 libx264
      DURATION        : 00:00:20.834000000
Output #0, rawvideo, to 'Output/x264/transcoded/sintelslower3000k.yuv':
  Metadata:
    encoder         : Lavf57.57.100
    Stream #0:0: Video: rawvideo (I420 / 0x30323449), yuv420p, 4096x1744 [SAR 1:1 DAR 256:109], q=2-31, 200 kb/s, 24 fps, 24 tbn, 24 tbc (default)
    Metadata:
      DURATION        : 00:00:20.834000000
      encoder         : Lavc57.66.101 rawvideo
Stream mapping:
  Stream #0:0 -> #0:0 (h264 (native) -> rawvideo (native))
Press [q] to stop, [?] for help
frame=   19 fps=0.0 q=-0.0 size=  198816kB time=00:00:00.79 bitrate=2057305.2kbits/s speed=1.52x    frame=   40 fps= 38 q=-0.0 size=  418560kB time=00:00:01.66 bitrate=2057305.7kbits/s speed= 1.6x    frame=   61 fps= 39 q=-0.0 size=  638304kB time=00:00:02.54 bitrate=2057305.8kbits/s speed=1.63x    frame=   82 fps= 40 q=-0.0 size=  858048kB time=00:00:03.41 bitrate=2057305.9kbits/s speed=1.65x    frame=  103 fps= 40 q=-0.0 size= 1077792kB time=00:00:04.29 bitrate=2057306.0kbits/s speed=1.65x    frame=  124 fps= 40 q=-0.0 size= 1297536kB time=00:00:05.16 bitrate=2057306.0kbits/s speed=1.66x    frame=  145 fps= 40 q=-0.0 size= 1517280kB time=00:00:06.04 bitrate=2057306.0kbits/s speed=1.66x    frame=  166 fps= 40 q=-0.0 size= 1737024kB time=00:00:06.91 bitrate=2057306.0kbits/s speed=1.66x    frame=  187 fps= 40 q=-0.0 size= 1956768kB time=00:00:07.79 bitrate=2057306.0kbits/s speed=1.66x    frame=  208 fps= 40 q=-0.0 size= 2176512kB time=00:00:08.66 bitrate=2057306.0kbits/s speed=1.67x    frame=  228 fps= 40 q=-0.0 size= 2385792kB time=00:00:09.50 bitrate=2057306.1kbits/s speed=1.67x    frame=  249 fps= 40 q=-0.0 size= 2605536kB time=00:00:10.37 bitrate=2057306.1kbits/s speed=1.67x    frame=  269 fps= 40 q=-0.0 size= 2814816kB time=00:00:11.20 bitrate=2057306.2kbits/s speed=1.67x    frame=  289 fps= 40 q=-0.0 size= 3024096kB time=00:00:12.04 bitrate=2057306.1kbits/s speed=1.67x    frame=  302 fps= 39 q=-0.0 size= 3160128kB time=00:00:12.58 bitrate=2057306.2kbits/s speed=1.63x    frame=  321 fps= 39 q=-0.0 size= 3358944kB time=00:00:13.37 bitrate=2057306.1kbits/s speed=1.62x    frame=  340 fps= 39 q=-0.0 size= 3557760kB time=00:00:14.16 bitrate=2057306.1kbits/s speed=1.61x    frame=  352 fps= 38 q=-0.0 size= 3683328kB time=00:00:14.66 bitrate=2057306.1kbits/s speed=1.58x    frame=  367 fps= 37 q=-0.0 size= 3840288kB time=00:00:15.29 bitrate=2057306.1kbits/s speed=1.56x    frame=  382 fps= 37 q=-0.0 size= 3997248kB time=00:00:15.91 bitrate=2057306.1kbits/s speed=1.54x    frame=  398 fps= 37 q=-0.0 size= 4164672kB time=00:00:16.58 bitrate=2057306.2kbits/s speed=1.53x    frame=  414 fps= 37 q=-0.0 size= 4332096kB time=00:00:17.25 bitrate=2057306.1kbits/s speed=1.52x    frame=  430 fps= 36 q=-0.0 size= 4499520kB time=00:00:17.91 bitrate=2057306.1kbits/s speed=1.52x    frame=  446 fps= 36 q=-0.0 size= 4666944kB time=00:00:18.58 bitrate=2057306.1kbits/s speed=1.51x    frame=  462 fps= 36 q=-0.0 size= 4834368kB time=00:00:19.25 bitrate=2057306.1kbits/s speed= 1.5x    frame=  478 fps= 36 q=-0.0 size= 5001792kB time=00:00:19.91 bitrate=2057306.1kbits/s speed=1.49x    frame=  494 fps= 36 q=-0.0 size= 5169216kB time=00:00:20.58 bitrate=2057306.1kbits/s speed=1.48x    frame=  500 fps= 35 q=-0.0 Lsize= 5232000kB time=00:00:20.83 bitrate=2057306.1kbits/s speed=1.46x    
video:5232000kB audio:0kB subtitle:0kB other streams:0kB global headers:0kB muxing overhead: 0.000000%
